{"title":"Gojira (Godzilla) - (1954) - BDRip x264 (subs) - [=Faith=]","uid":13854470,"size":1985259957,"categoryP":"video","categoryS":"hd___movies","magnet":"?xt=urn:btih:bd0c065febb5cc2db6aeb1e063709ed851b0dfde&amp;dn=Gojira+%28Godzilla%29+-+%281954%29+-+BDRip+x264+%28subs%29+-+%5B%3DFaith%3D%5D&amp;tr=udp%3A%2F%2Ftracker.leechers-paradise.org%3A6969&amp;tr=udp%3A%2F%2Fzer0day.ch%3A1337&amp;tr=udp%3A%2F%2Fopen.demonii.com%3A1337&amp;tr=udp%3A%2F%2Ftracker.coppersurfer.tk%3A6969&amp;tr=udp%3A%2F%2Fexodus.desync.com%3A6969","seeders":15,"leechers":1,"uploader":"Faithwyn","files":5,"time":1458001197,"description":"Gojira - ã‚´ã‚¸ãƒ© (Godzilla) 1954\r\n\r\n\r\nAmerican nuclear weapons testing results in the creation of a \r\nseeminglyunstoppable, dinosaur-like beast.\r\n\r\n\r\nThe Film:\r\n\r\nTitle: Gojira - ã‚´ã‚¸ãƒ© - (Godzilla)\r\nDirected by: IshirÅ Honda\r\nProduced by: Tomoyuki Tanaka\r\nScreenplay: IshirÅ Honda\r\nTakeo Murata\r\nStory by: Shigeru Kayama\r\nStars: Akira Takarada\r\nMomoko KÅchi\r\nAkihiko Hirata\r\nTakashi Shimura\r\nMusic by: Akira Ifukube\r\nCinematography: Masao Tamai\r\nEdited by: Kazuji Taira\r\nDistributed by: Toho\r\nRelease date: November 3, 1954\r\nRunning time: 96 minutes\r\nCountry: Japan\r\nLanguage: Japanese\r\nAudio Track 2: English Commentary\r\nSubtitles: English (softcoded)\r\nIMDB Rating: 7.5\r\n\r\n\r\n\r\nGeneral:\r\n\r\nComplete name : Gojira 1954.m4v\r\nFormat : Matroska\r\nFormat profile : Version 2\r\nFile size : 1.85 GB\r\nDuration : 1hr 36min\r\nOverall bit rate : 2742 Kbps\r\nGenre : Horror\r\nWriting application : HandBrake 0.9.9\r\nWriting library : libmkv 0.6.5\r\n\r\n\r\nVideo:\r\n\r\nID : 1\r\nFormat : AVC\r\nFormat/Info : Advanced Video Codec\r\nFormat profile :   \r\nFormat settings, CABAC : Yes\r\nFormat settings, ReFrames : 8 frames\r\nCodec ID : V_MPEG4/ISO/AVC\r\nDuration : 1h 36min\r\nBit rate : 2368 Kbps\r\nWidth : 986 pixels\r\nHeight : 720 pixels\r\nDisplay aspect ratio : 4:3\r\nFrame rate mode : Constant\r\nFrame rate : 23.976 fps\r\nColor space : YUV\r\nChroma subsampling : 4:2:0\r\nBit depth : 8 bits\r\nScan type : Progressive\r\nBits/(Pixel*Frame) : 0.139\r\nStream size : 1.60 GiB (86%)\r\nWriting library : x264 core 130 r2273 b3065e6\r\nEncoding settings : (see .nfo file for details)\r\n\r\n\r\nAudio:\r\n\r\nID : 2\r\nFormat : AC-3\r\nFormat/Info : Audio Coding 3\r\nMode extension : CM (complete main)\r\nFormat settings, Endianness : Big\r\nCodec ID : A_AC3\r\nDuration : 1h 36min\r\nBit rate mode : Constant\r\nBit rate : 160 Kbps\r\nChannel(s) : 1 channel\r\nChannel positions : Front: C\r\nSampling rate : 48.0 KHz\r\nBit depth : 16 bits\r\nCompression mode : Lossy\r\nStream size : 110 MiB (4%)\r\nLanguage : Japanese\r\n\r\n\r\n\r\nGodzilla (ã‚´ã‚¸ãƒ© Gojira?) is a 1954 Japanese science fiction kaiju film directed by \r\nIshirÅ Honda. The film stars Akira Takarada, Momoko KÅchi, Akihiko Hirata, Takashi \r\nShimura and Haruo Nakajima, who portrayed the titular character until his \r\nretirement in 1972. The film is produced by Toho and features special effects by \r\nEiji Tsuburaya.\r\nThe film focuses on Godzilla, a prehistoric monster resurrected by repeated nuclear \r\ntests in the Pacific, who ravages Japan and reignites the horrors of nuclear \r\ndevastation to the very nation that experienced it first-hand. It was the first of \r\nmany kaiju films released in Japan, paving the way and setting the standard for \r\nfuture kaiju films, many of which feature Godzilla.\r\n\r\nIn 1956, TransWorld Releasing Corp. released &quot;Godzilla, King of the Monsters!&quot;, \r\na heavilyre-edited &quot;Americanized&quot; version of the original film which featured new \r\nfootage, featuring Canadian actor Raymond Burr, shot exclusively for its North \r\nAmerican release. In 2004 Rialto Pictures gave the original a limited theatrical \r\nrelease in the United States to coincide with the original film's 50th anniversary","torrent":{"xt":"urn:btih:bd0c065febb5cc2db6aeb1e063709ed851b0dfde","amp;dn":"Gojira+%28Godzilla%29+-+%281954%29+-+BDRip+x264+%28subs%29+-+%5B%3DFaith%3D%5D","amp;tr":["udp%3A%2F%2Ftracker.leechers-paradise.org%3A6969","udp%3A%2F%2Fzer0day.ch%3A1337","udp%3A%2F%2Fopen.demonii.com%3A1337","udp%3A%2F%2Ftracker.coppersurfer.tk%3A6969","udp%3A%2F%2Fexodus.desync.com%3A6969"],"infoHash":"bd0c065febb5cc2db6aeb1e063709ed851b0dfde","infoHashBuffer":{"type":"Buffer","data":[189,12,6,95,235,181,204,45,182,174,177,224,99,112,158,216,81,176,223,222]},"announce":[],"urlList":[]}}